<svg width="40" height="40" viewBox="0 0 40 40" fill="none" xmlns="http://www.w3.org/2000/svg">
<path d="M38.8485 24.5L24.5307 38.8C24.1302 39.2 23.6796 39.5 23.179 39.7C22.6783 39.9 22.1777 40 21.6771 40C21.1765 40 20.6758 39.9 20.1752 39.7C19.6746 39.5 19.224 39.2 18.8235 38.8L1.15144 21.15C0.784314 20.7833 0.500626 20.3587 0.300376 19.876C0.100125 19.3933 0 18.8847 0 18.35V4C0 2.9 0.392491 1.95867 1.17747 1.176C1.96245 0.393333 2.90496 0.00133333 4.005 0H18.373C18.907 0 19.4243 0.108667 19.9249 0.326C20.4255 0.543334 20.8594 0.834666 21.2265 1.2L38.8485 18.85C39.249 19.25 39.5414 19.7 39.7256 20.2C39.9099 20.7 40.0013 21.2 40 21.7C39.9987 22.2 39.9072 22.692 39.7256 23.176C39.5441 23.66 39.2517 24.1013 38.8485 24.5ZM21.6771 36L35.995 21.7L18.3229 4H4.005V18.3L21.6771 36ZM9.01126 12C9.84564 12 10.5552 11.7087 11.1399 11.126C11.7247 10.5433 12.0163 9.83467 12.015 9C12.0137 8.16533 11.722 7.45733 11.1399 6.876C10.5579 6.29467 9.84831 6.00267 9.01126 6C8.17422 5.99733 7.46533 6.28933 6.8846 6.876C6.30388 7.46267 6.01151 8.17067 6.00751 9C6.0035 9.82933 6.29587 10.538 6.8846 11.126C7.47334 11.714 8.18223 12.0053 9.01126 12Z" fill="#BAFF19"/>
</svg>
