<svg width="40" height="40" viewBox="0 0 40 40" fill="none" xmlns="http://www.w3.org/2000/svg">
<path d="M38.0181 8H10.1195L7.8996 1.36001C7.76544 0.962765 7.50983 0.617737 7.1689 0.373691C6.82797 0.129645 6.41896 -0.00107566 5.9997 6.66707e-06H0V4.00001H4.55977L11.6394 25.26C11.9043 26.0582 12.4141 26.7526 13.0962 27.2445C13.7784 27.7364 14.5982 28.0008 15.4392 28H30.6185C31.4323 27.9986 32.2263 27.7489 32.8946 27.2843C33.5628 26.8198 34.0734 26.1624 34.3583 25.4L39.878 10.7C40.098 10.08 40.018 9.4 39.658 8.86C39.4742 8.59507 39.2291 8.37851 38.9436 8.22876C38.658 8.07902 38.3405 8.00054 38.0181 8ZM30.6385 24H15.4592L11.4594 12H35.1382L30.6385 24ZM16.0192 32C14.9584 32 13.941 32.4214 13.1909 33.1716C12.4408 33.9217 12.0194 34.9391 12.0194 36C12.0194 37.0609 12.4408 38.0783 13.1909 38.8284C13.941 39.5786 14.9584 40 16.0192 40C17.08 40 18.0974 39.5786 18.8475 38.8284C19.5976 38.0783 20.019 37.0609 20.019 36C20.019 34.9391 19.5976 33.9217 18.8475 33.1716C18.0974 32.4214 17.08 32 16.0192 32ZM30.0185 32C28.9577 32 27.9403 32.4214 27.1902 33.1716C26.4401 33.9217 26.0187 34.9391 26.0187 36C26.0187 37.0609 26.4401 38.0783 27.1902 38.8284C27.9403 39.5786 28.9577 40 30.0185 40C31.0793 40 32.0967 39.5786 32.8468 38.8284C33.5969 38.0783 34.0183 37.0609 34.0183 36C34.0183 34.9391 33.5969 33.9217 32.8468 33.1716C32.0967 32.4214 31.0793 32 30.0185 32Z" fill="#BAFF19"/>
</svg>
