<svg width="18" height="18" viewBox="0 0 18 18" fill="none" xmlns="http://www.w3.org/2000/svg">
<path d="M11.6494 1.6875C11.9601 1.6875 12.2119 1.93934 12.2119 2.25V3.1875H13.1494C14.2885 3.1875 15.2119 4.11091 15.2119 5.25V14.25C15.2119 15.3891 14.2885 16.3125 13.1494 16.3125H4.14941C3.01033 16.3125 2.08691 15.3891 2.08691 14.25V5.25C2.08691 4.11091 3.01033 3.1875 4.14941 3.1875H5.08691V2.25C5.08691 1.93934 5.33875 1.6875 5.64941 1.6875C5.96007 1.6875 6.21191 1.93934 6.21191 2.25V3.1875H11.0869V2.25C11.0869 1.93934 11.3388 1.6875 11.6494 1.6875ZM3.21191 8.8125V14.25C3.21191 14.7678 3.63165 15.1875 4.14941 15.1875H13.1494C13.6672 15.1875 14.0869 14.7678 14.0869 14.25V8.8125H3.21191ZM4.14941 4.3125C3.63165 4.3125 3.21191 4.73223 3.21191 5.25V7.6875H14.0869V5.25C14.0869 4.73223 13.6672 4.3125 13.1494 4.3125H12.2119V5.25C12.2119 5.56066 11.9601 5.8125 11.6494 5.8125C11.3388 5.8125 11.0869 5.56066 11.0869 5.25V4.3125H6.21191V5.25C6.21191 5.56066 5.96007 5.8125 5.64941 5.8125C5.33875 5.8125 5.08691 5.56066 5.08691 5.25V4.3125H4.14941Z" fill="#BDBDBD"/>
</svg>
