<svg width="18" height="18" viewBox="0 0 18 18" fill="none" xmlns="http://www.w3.org/2000/svg">
<path d="M12.375 2.94118C13.0867 2.94118 13.7692 3.22407 14.2725 3.72731C14.7757 4.23057 15.0585 4.91306 15.0586 5.62477C15.0586 6.33656 14.7758 7.01989 14.2725 7.52321L6.39746 15.3982C6.29201 15.5035 6.14901 15.5623 6 15.5623H3C2.68934 15.5623 2.4375 15.3104 2.4375 14.9998V11.9998C2.43756 11.8507 2.4971 11.7077 2.60254 11.6023L10.4775 3.72731C10.9808 3.22407 11.6633 2.94118 12.375 2.94118ZM3.5625 12.2332V14.4373H5.76758L12.3301 7.87477L10.125 5.66969L3.5625 12.2332ZM12.375 4.06618C11.9616 4.06618 11.5648 4.23087 11.2725 4.52321L10.9199 4.87477L13.125 7.07985L13.4775 6.72731C13.7698 6.43499 13.9336 6.03814 13.9336 5.62477C13.9335 5.2116 13.7696 4.81545 13.4775 4.52321C13.1852 4.23087 12.7884 4.06618 12.375 4.06618Z" fill="#BDBDBD"/>
</svg>
